<?xml version="1.0" encoding="utf-8"?>
<!-- Designed by Vexels.com - 2019 All Rights Reserved - https://vexels.com/terms-and-conditions/  -->
<svg version="1.1" id="Layer_1" xmlns="http://www.w3.org/2000/svg" xmlns:xlink="http://www.w3.org/1999/xlink" x="0px" y="0px"
	 viewBox="0 0 1200 1200" enable-background="new 0 0 1200 1200" xml:space="preserve">
<path fill="#808285" d="M737.572,558.328c18.655-44.121,28.121-90.986,28.121-139.296c0-48.312-9.466-95.178-28.121-139.287
	c-8.971-21.205-20.066-41.662-32.995-60.787c-12.804-18.951-27.508-36.765-43.703-52.96c-16.182-16.196-34.006-30.897-52.956-43.702
	c-19.128-12.917-39.574-24.022-60.779-32.985c-44.121-18.665-90.986-28.13-139.299-28.13c-48.31,0-95.163,9.465-139.286,28.13
	c-21.205,8.963-41.651,20.069-60.789,32.985c-18.95,12.804-36.764,27.505-52.959,43.702c-16.195,16.195-30.894,34.009-43.69,52.96
	c-12.929,19.125-24.032,39.583-32.995,60.787C59.459,323.855,50,370.72,50,419.032c0,48.31,9.459,95.175,28.121,139.296
	c8.963,21.195,20.066,41.651,32.995,60.776c12.797,18.951,27.495,36.775,43.69,52.961c16.195,16.196,34.009,30.896,52.959,43.702
	c19.138,12.927,39.584,24.021,60.789,32.995c44.123,18.654,90.976,28.12,139.286,28.12c48.312,0,95.178-9.466,139.299-28.12
	c21.205-8.974,41.651-20.068,60.779-32.995c18.95-12.806,36.774-27.505,52.956-43.702c16.195-16.186,30.898-34.01,43.703-52.961
	C717.506,599.979,728.601,579.523,737.572,558.328z M407.84,652.736c-129.072,0-233.703-104.632-233.703-233.703
	c0-129.074,104.632-233.706,233.703-233.706c129.074,0,233.706,104.632,233.706,233.706
	C641.546,548.104,536.914,652.736,407.84,652.736z M1131.573,1026.525l-49.15-49.15L757.188,652.141
	c-0.03-0.041-0.08-0.051-0.12-0.051c-0.053,0.01-0.093,0.031-0.113,0.071c-23.612,38.066-53.697,70.98-89.43,97.819
	c-0.04,0.021-0.06,0.061-0.06,0.104c0,0.051,0.008,0.093,0.04,0.123l321.046,321.04l-0.003,0.004l49.14,49.13
	c11.894,11.892,27.768,18.438,44.704,18.438c16.931,0,32.8-6.546,44.681-18.438l4.499-4.498
	c11.886-11.884,18.427-27.751,18.427-44.684C1150,1054.276,1143.459,1038.409,1131.573,1026.525z"/>
</svg>
